<?xml version="1.0" encoding="UTF-8" standalone="no"?>
<!-- Created with Inkscape (http://www.inkscape.org/) -->
<svg
   xmlns:dc="http://purl.org/dc/elements/1.1/"
   xmlns:cc="http://creativecommons.org/ns#"
   xmlns:rdf="http://www.w3.org/1999/02/22-rdf-syntax-ns#"
   xmlns:svg="http://www.w3.org/2000/svg"
   xmlns="http://www.w3.org/2000/svg"
   xmlns:xlink="http://www.w3.org/1999/xlink"
   xmlns:sodipodi="http://sodipodi.sourceforge.net/DTD/sodipodi-0.dtd"
   xmlns:inkscape="http://www.inkscape.org/namespaces/inkscape"
   width="744.09003"
   height="130"
   id="svg6188"
   sodipodi:version="0.32"
   inkscape:version="0.45+devel+devel"
   version="1.0"
   sodipodi:docname="legno.svg"
   inkscape:output_extension="org.inkscape.output.svg.inkscape">
  <defs
     id="defs6190">
    <linearGradient
       inkscape:collect="always"
       id="linearGradient10391">
      <stop
         style="stop-color:#784421;stop-opacity:1;"
         offset="0"
         id="stop10393" />
      <stop
         style="stop-color:#784421;stop-opacity:0;"
         offset="1"
         id="stop10395" />
    </linearGradient>
    <linearGradient
       inkscape:collect="always"
       xlink:href="#linearGradient10391"
       id="linearGradient10397"
       x1="269.74628"
       y1="626.71185"
       x2="270.03397"
       y2="542.57214"
       gradientUnits="userSpaceOnUse"
       gradientTransform="matrix(1.5408732,0,0,1.5408732,-206.2055,-752.18368)" />
    <linearGradient
       inkscape:collect="always"
       xlink:href="#linearGradient10405"
       id="linearGradient10413"
       x1="220.71213"
       y1="446.89008"
       x2="221.41634"
       y2="443.78601"
       gradientUnits="userSpaceOnUse" />
    <linearGradient
       inkscape:collect="always"
       id="linearGradient10405">
      <stop
         style="stop-color:#28170b;stop-opacity:1;"
         offset="0"
         id="stop10407" />
      <stop
         style="stop-color:#28170b;stop-opacity:0;"
         offset="1"
         id="stop10409" />
    </linearGradient>
    <linearGradient
       inkscape:collect="always"
       xlink:href="#linearGradient10405"
       id="linearGradient10419"
       gradientUnits="userSpaceOnUse"
       x1="220.71213"
       y1="446.89008"
       x2="221.41634"
       y2="443.78601" />
    <inkscape:perspective
       sodipodi:type="inkscape:persp3d"
       inkscape:vp_x="-50 : 600 : 1"
       inkscape:vp_y="0 : 1000 : 0"
       inkscape:vp_z="700 : 600 : 1"
       inkscape:persp3d-origin="300 : 400 : 1"
       id="perspective6196" />
  </defs>
  <sodipodi:namedview
     id="base"
     pagecolor="#ffffff"
     bordercolor="#666666"
     borderopacity="1.0"
     inkscape:pageopacity="0.0"
     inkscape:pageshadow="2"
     inkscape:zoom="0.35"
     inkscape:cx="375"
     inkscape:cy="526"
     inkscape:document-units="px"
     inkscape:current-layer="layer1"
     showgrid="false"
     inkscape:showpageshadow="false"
     inkscape:window-width="1280"
     inkscape:window-height="964"
     inkscape:window-x="-4"
     inkscape:window-y="-4" />
  <metadata
     id="metadata6193">
    <rdf:RDF>
      <cc:Work
         rdf:about="">
        <dc:format>image/svg+xml</dc:format>
        <dc:type
           rdf:resource="http://purl.org/dc/dcmitype/StillImage" />
      </cc:Work>
    </rdf:RDF>
  </metadata>
  <g
     inkscape:label="Livello 1"
     inkscape:groupmode="layer"
     id="layer1">
    <path
       style="fill:#cccccc;fill-opacity:1;fill-rule:evenodd;stroke:none;stroke-width:0.49605361;stroke-linecap:butt;stroke-linejoin:miter;stroke-miterlimit:4;stroke-dasharray:none;stroke-opacity:1"
       d="M 14.432246,18.46815 L 733.42061,21.400124 L 733.42061,33.052454 L 657.98762,35.671199 L 605.73635,40.946301 L 731.84427,43.878244 L 734.99702,55.605969 L 714.50442,55.605969 L 666.55443,65.529824 L 732.74577,68.424062 L 731.84427,124.09088 L 16.008544,128.00009 L 14.300886,108.39425 L 54.823773,97.581821 L 12.362653,85.061595 L 14.432246,18.46815 z"
       id="path10399"
       sodipodi:nodetypes="cccccccccccccccc"
       inkscape:export-filename="C:\Documents and Settings\Paola\Desktop\legno3.png"
       inkscape:export-xdpi="90"
       inkscape:export-ydpi="90" />
    <path
       style="fill:#decd87;fill-rule:evenodd;stroke:#452e00;stroke-width:0.76435572;stroke-linecap:butt;stroke-linejoin:miter;stroke-miterlimit:4;stroke-dasharray:none;stroke-opacity:1"
       d="M 13.165032,12.39261 L 733.10894,15.376003 L 733.10894,27.232668 L 657.57569,29.897331 L 605.25498,35.264932 L 731.5305,38.248278 L 734.68742,50.181664 L 714.1676,50.181664 L 666.15387,60.279545 L 732.43319,63.224539 L 731.5305,119.86752 L 14.743441,123.84528 L 13.033503,103.89564 L 53.610242,92.893591 L 11.092696,80.153821 L 13.165032,12.39261 z"
       id="path9434"
       sodipodi:nodetypes="cccccccccccccccc"
       inkscape:export-filename="C:\Documents and Settings\Paola\Desktop\legno3.png"
       inkscape:export-xdpi="90"
       inkscape:export-ydpi="90" />
    <path
       style="fill:url(#linearGradient10397);fill-opacity:1;fill-rule:evenodd;stroke:none;stroke-width:0.49605361;stroke-linecap:butt;stroke-linejoin:miter;stroke-miterlimit:4;stroke-dasharray:none;stroke-opacity:1"
       d="M 12.717023,11.798696 L 732.66093,14.782089 L 732.66093,26.638754 L 657.12768,29.303417 L 604.80697,34.671018 L 731.08249,37.654364 L 734.23941,49.587749 L 713.71959,49.587749 L 665.70586,59.685631 L 731.98518,62.630625 L 731.08249,119.2736 L 14.295432,123.25137 L 12.585494,103.30173 L 53.162234,92.299677 L 10.644687,79.559907 L 12.717023,11.798696 z"
       id="path10381"
       sodipodi:nodetypes="cccccccccccccccc"
       inkscape:export-filename="C:\Documents and Settings\Paola\Desktop\legno3.png"
       inkscape:export-xdpi="90"
       inkscape:export-ydpi="90" />
    <path
       style="fill:none;fill-rule:evenodd;stroke:#806f49;stroke-width:0.76435572;stroke-linecap:butt;stroke-linejoin:miter;stroke-miterlimit:4;stroke-dasharray:none;stroke-opacity:1"
       d="M 12.85695,23.320745 C 12.85695,23.320745 269.98827,19.204919 307.03081,27.436603 C 344.07333,35.668271 366.71045,55.218485 429.47695,43.899955 C 492.24347,32.581393 585.87873,24.34971 607.48689,24.34971 C 629.09505,24.34971 732.86717,24.98478 732.86717,24.98478"
       id="path9436"
       sodipodi:nodetypes="csssc"
       inkscape:export-filename="C:\Documents and Settings\Paola\Desktop\legno3.png"
       inkscape:export-xdpi="90"
       inkscape:export-ydpi="90" />
    <path
       style="fill:none;fill-rule:evenodd;stroke:#806f49;stroke-width:0.76435572;stroke-linecap:butt;stroke-linejoin:miter;stroke-miterlimit:4;stroke-dasharray:none;stroke-opacity:1"
       d="M 356.42082,15.089092 C 356.42082,15.089092 368.67701,38.447806 401.69505,30.523449 C 427.41904,24.34971 489.15659,15.089061 496.3593,15.089061"
       id="path9440"
       sodipodi:nodetypes="css"
       inkscape:export-filename="C:\Documents and Settings\Paola\Desktop\legno3.png"
       inkscape:export-xdpi="90"
       inkscape:export-ydpi="90" />
    <path
       style="fill:none;fill-rule:evenodd;stroke:#806f49;stroke-width:0.76435572;stroke-linecap:butt;stroke-linejoin:miter;stroke-miterlimit:4;stroke-dasharray:none;stroke-opacity:1"
       d="M 12.748472,45.957868 C 17.893263,46.986802 189.72945,43.899924 218.54031,43.899924 C 247.35117,43.899924 205.16384,53.160572 162.9765,56.247465 C 120.78919,59.334312 11.719492,55.218485 11.719492,55.218485"
       id="path9444"
       inkscape:export-filename="C:\Documents and Settings\Paola\Desktop\legno3.png"
       inkscape:export-xdpi="90"
       inkscape:export-ydpi="90" />
    <path
       style="fill:none;fill-rule:evenodd;stroke:#806f49;stroke-width:0.76435572;stroke-linecap:butt;stroke-linejoin:miter;stroke-miterlimit:4;stroke-dasharray:none;stroke-opacity:1"
       d="M 11.281376,77.855578 C 11.281376,77.855578 164.00546,75.79768 244.2643,66.537047 C 324.52311,57.276399 357.4498,56.247465 395.52128,57.276399 C 433.59276,58.305378 522.08328,74.7687 580.73394,62.42119 C 639.38464,50.073695 677.45612,49.044715 688.77465,49.044715 C 700.09322,49.044715 731.99097,50.073695 731.99097,50.073695"
       id="path9446"
       sodipodi:nodetypes="cssssc"
       inkscape:export-filename="C:\Documents and Settings\Paola\Desktop\legno3.png"
       inkscape:export-xdpi="90"
       inkscape:export-ydpi="90" />
    <path
       style="fill:none;fill-rule:evenodd;stroke:#806f49;stroke-width:0.76435572;stroke-linecap:butt;stroke-linejoin:miter;stroke-miterlimit:4;stroke-dasharray:none;stroke-opacity:1"
       d="M 51.409413,92.261032 C 51.409413,92.261032 170.17923,81.971435 203.10592,81.971435 C 236.03261,81.971435 338.92854,100.49269 398.60818,92.261032 C 458.28781,84.029348 525.17016,74.7687 571.47332,73.739766 C 617.77649,72.710787 730.96199,89.174154 730.96199,89.174154 L 731.99097,89.174154"
       id="path9452"
       sodipodi:nodetypes="cssscc"
       inkscape:export-filename="C:\Documents and Settings\Paola\Desktop\legno3.png"
       inkscape:export-xdpi="90"
       inkscape:export-ydpi="90" />
    <path
       style="fill:none;fill-rule:evenodd;stroke:#806f49;stroke-width:0.76435572;stroke-linecap:butt;stroke-linejoin:miter;stroke-miterlimit:4;stroke-dasharray:none;stroke-opacity:1"
       d="M 12.989619,108.72435 C 12.989619,108.72435 147.54211,114.89812 189.72945,109.75333 C 231.91679,104.60854 312.17562,99.463736 346.13124,100.49269 C 380.0869,101.52165 511.79368,85.058297 535.45975,89.174154 C 559.12583,93.289966 731.94676,98.434772 731.94676,98.434772"
       id="path9460"
       sodipodi:nodetypes="csssc"
       inkscape:export-filename="C:\Documents and Settings\Paola\Desktop\legno3.png"
       inkscape:export-xdpi="90"
       inkscape:export-ydpi="90" />
    <path
       style="fill:none;fill-rule:evenodd;stroke:#806f49;stroke-width:0.76435572;stroke-linecap:butt;stroke-linejoin:miter;stroke-miterlimit:4;stroke-dasharray:none;stroke-opacity:1"
       d="M 731.74978,105.63748 C 731.74978,105.63748 597.19731,100.49269 560.15476,98.434772 C 523.11224,96.376859 506.64889,98.434772 488.12761,102.55063 C 469.60635,106.66644 517.96745,109.75333 558.09685,110.78227 C 598.22627,111.81125 731.99097,113.86916 731.99097,113.86916"
       id="path9464"
       sodipodi:nodetypes="csssc"
       inkscape:export-filename="C:\Documents and Settings\Paola\Desktop\legno3.png"
       inkscape:export-xdpi="90"
       inkscape:export-ydpi="90" />
    <path
       style="fill:none;fill-rule:evenodd;stroke:#806f49;stroke-width:0.76435572;stroke-linecap:butt;stroke-linejoin:miter;stroke-miterlimit:4;stroke-dasharray:none;stroke-opacity:1"
       d="M 217.53951,122.51485 C 217.53951,122.51485 377.00002,104.60854 406.83986,105.63748 C 436.67966,106.66644 338.18496,121.85965 338.18496,121.85965"
       id="path9466"
       sodipodi:nodetypes="csc"
       inkscape:export-filename="C:\Documents and Settings\Paola\Desktop\legno3.png"
       inkscape:export-xdpi="90"
       inkscape:export-ydpi="90" />
    <path
       sodipodi:type="arc"
       style="fill:#784421;fill-opacity:1;stroke:none;stroke-width:0.213;stroke-linecap:butt;stroke-miterlimit:4;stroke-dasharray:none;stroke-dashoffset:0;stroke-opacity:1"
       id="path9492"
       sodipodi:cx="220.9301"
       sodipodi:cy="444.76859"
       sodipodi:rx="2.4372561"
       sodipodi:ry="2.2938881"
       d="M 223.36736,444.76859 A 2.4372561,2.2938881 0 1 1 218.49284,444.76859 A 2.4372561,2.2938881 0 1 1 223.36736,444.76859 z"
       transform="matrix(4.5959518,0,0,5.0191249,-323.07411,-2164.5322)"
       inkscape:export-filename="C:\Documents and Settings\Paola\Desktop\legno3.png"
       inkscape:export-xdpi="90"
       inkscape:export-ydpi="90" />
    <path
       sodipodi:type="arc"
       style="fill:url(#linearGradient10413);fill-opacity:1;stroke:none;stroke-width:0.213;stroke-linecap:butt;stroke-miterlimit:4;stroke-dasharray:none;stroke-dashoffset:0;stroke-opacity:1"
       id="path10403"
       sodipodi:cx="220.9301"
       sodipodi:cy="444.76859"
       sodipodi:rx="2.4372561"
       sodipodi:ry="2.2938881"
       d="M 223.36736,444.76859 A 2.4372561,2.2938881 0 1 1 218.49284,444.76859 A 2.4372561,2.2938881 0 1 1 223.36736,444.76859 z"
       transform="matrix(4.5959518,0,0,5.0191249,-323.0756,-2164.479)"
       inkscape:export-filename="C:\Documents and Settings\Paola\Desktop\legno3.png"
       inkscape:export-xdpi="90"
       inkscape:export-ydpi="90" />
    <path
       sodipodi:type="arc"
       style="fill:#784421;fill-opacity:1;stroke:none;stroke-width:0.213;stroke-linecap:butt;stroke-miterlimit:4;stroke-dasharray:none;stroke-dashoffset:0;stroke-opacity:1"
       id="path10415"
       sodipodi:cx="220.9301"
       sodipodi:cy="444.76859"
       sodipodi:rx="2.4372561"
       sodipodi:ry="2.2938881"
       d="M 223.36736,444.76859 A 2.4372561,2.2938881 0 1 1 218.49284,444.76859 A 2.4372561,2.2938881 0 1 1 223.36736,444.76859 z"
       transform="matrix(4.5959518,0,0,5.0191249,-962.29556,-2165.7455)"
       inkscape:export-filename="C:\Documents and Settings\Paola\Desktop\legno3.png"
       inkscape:export-xdpi="90"
       inkscape:export-ydpi="90" />
    <path
       sodipodi:type="arc"
       style="fill:url(#linearGradient10419);fill-opacity:1;stroke:none;stroke-width:0.213;stroke-linecap:butt;stroke-miterlimit:4;stroke-dasharray:none;stroke-dashoffset:0;stroke-opacity:1"
       id="path10417"
       sodipodi:cx="220.9301"
       sodipodi:cy="444.76859"
       sodipodi:rx="2.4372561"
       sodipodi:ry="2.2938881"
       d="M 223.36736,444.76859 A 2.4372561,2.2938881 0 1 1 218.49284,444.76859 A 2.4372561,2.2938881 0 1 1 223.36736,444.76859 z"
       transform="matrix(4.5959518,0,0,5.0191249,-962.2971,-2165.6923)"
       inkscape:export-filename="C:\Documents and Settings\Paola\Desktop\legno3.png"
       inkscape:export-xdpi="90"
       inkscape:export-ydpi="90" />
  </g>
</svg>
